<svg clip-rule="evenodd" fill-rule="evenodd" stroke-linejoin="round" stroke-miterlimit="2" viewBox="0 0 500 500" xmlns="http://www.w3.org/2000/svg"><linearGradient id="a" gradientTransform="rotate(-44.814 82.607 3.41) scale(54.084)" gradientUnits="userSpaceOnUse" x1="0" x2="1" y1="0" y2="0"><stop offset="0" stop-color="#fbe2bf"/><stop offset=".23" stop-color="#f4dbb8"/><stop offset=".56" stop-color="#e1c9a5"/><stop offset=".94" stop-color="#c2ac86"/><stop offset="1" stop-color="#bda781"/></linearGradient><linearGradient id="d" gradientTransform="rotate(70.219 2.088 29.822) scale(30.237)" gradientUnits="userSpaceOnUse" x1="0" x2="1" y1="0" y2="0"><stop offset="0" stop-color="#99543d"/><stop offset=".15" stop-color="#99543d"/><stop offset=".33" stop-color="#904f3a"/><stop offset=".6" stop-color="#794230"/><stop offset=".95" stop-color="#532d21"/><stop offset="1" stop-color="#4d2a1f"/></linearGradient><linearGradient id="e" gradientTransform="rotate(46.847 5.014 52.07) scale(27.55)" gradientUnits="userSpaceOnUse" x1="0" x2="1" y1="0" y2="0"><stop offset="0" stop-color="#d67655"/><stop offset=".63" stop-color="#a15940"/><stop offset="1" stop-color="#874a36"/></linearGradient><linearGradient id="m" gradientTransform="rotate(-45.21 152.526 -23.336) scale(64.822)" gradientUnits="userSpaceOnUse" x1="0" x2="1" y1="0" y2="0"><stop offset="0" stop-color="#b3b3b3"/><stop offset=".59" stop-color="#b8b8b8"/><stop offset=".71" stop-color="#acacac"/><stop offset=".93" stop-color="#8b8b8b"/><stop offset="1" stop-color="gray"/></linearGradient><clipPath id="b"><path d="M44.83 37.67c2.71-2.72 1.79-5.48 7.17-11.33 3.08-3.35 4.93-4.38 4.31-8.05-1.05-6.2-6.54-11.73-12.64-12.84s-12.12 1.73-18 4.23c-6.52 2.77-10.83 7.13-14.73 13.17-2.8 4.34-4.99 9.6-3.77 14.5C8.54 42.77 11.95 47.08 17 48c6.45 1.17 7.5 3.33 14-2 3.36-2.76 9.51-4 13.83-8.33z"/></clipPath><clipPath id="c"><path d="M44.83 37.67c2.71-2.72 1.79-5.48 7.17-11.33 3.08-3.35 4.93-4.38 4.31-8.05-1.05-6.2-6.54-11.73-12.64-12.84s-12.12 1.73-18 4.23c-6.52 2.77-10.83 7.13-14.73 13.17-2.8 4.34-4.99 9.6-3.77 14.5C8.54 42.77 11.95 47.08 17 48c6.45 1.17 7.5 3.33 14-2 3.36-2.76 9.51-4 13.83-8.33z"/></clipPath><clipPath id="f"><path d="M44.83 37.67c2.71-2.72 1.79-5.48 7.17-11.33 3.08-3.35 4.93-4.38 4.31-8.05-1.05-6.2-6.54-11.73-12.64-12.84s-12.12 1.73-18 4.23c-6.52 2.77-10.83 7.13-14.73 13.17-2.8 4.34-4.99 9.6-3.77 14.5C8.54 42.77 11.95 47.08 17 48c6.45 1.17 7.5 3.33 14-2 3.36-2.76 9.51-4 13.83-8.33z"/></clipPath><clipPath id="g"><path d="M44.83 37.67c2.71-2.72 1.79-5.48 7.17-11.33 3.08-3.35 4.93-4.38 4.31-8.05-1.05-6.2-6.54-11.73-12.64-12.84s-12.12 1.73-18 4.23c-6.52 2.77-10.83 7.13-14.73 13.17-2.8 4.34-4.99 9.6-3.77 14.5C8.54 42.77 11.95 47.08 17 48c6.45 1.17 7.5 3.33 14-2 3.36-2.76 9.51-4 13.83-8.33z"/></clipPath><clipPath id="h"><path d="M44.83 37.67c2.71-2.72 1.79-5.48 7.17-11.33 3.08-3.35 4.93-4.38 4.31-8.05-1.05-6.2-6.54-11.73-12.64-12.84s-12.12 1.73-18 4.23c-6.52 2.77-10.83 7.13-14.73 13.17-2.8 4.34-4.99 9.6-3.77 14.5C8.54 42.77 11.95 47.08 17 48c6.45 1.17 7.5 3.33 14-2 3.36-2.76 9.51-4 13.83-8.33z"/></clipPath><clipPath id="i"><path d="M44.83 37.67c2.71-2.72 1.79-5.48 7.17-11.33 3.08-3.35 4.93-4.38 4.31-8.05-1.05-6.2-6.54-11.73-12.64-12.84s-12.12 1.73-18 4.23c-6.52 2.77-10.83 7.13-14.73 13.17-2.8 4.34-4.99 9.6-3.77 14.5C8.54 42.77 11.95 47.08 17 48c6.45 1.17 7.5 3.33 14-2 3.36-2.76 9.51-4 13.83-8.33z"/></clipPath><clipPath id="j"><path d="M44.83 37.67c2.71-2.72 1.79-5.48 7.17-11.33 3.08-3.35 4.93-4.38 4.31-8.05-1.05-6.2-6.54-11.73-12.64-12.84s-12.12 1.73-18 4.23c-6.52 2.77-10.83 7.13-14.73 13.17-2.8 4.34-4.99 9.6-3.77 14.5C8.54 42.77 11.95 47.08 17 48c6.45 1.17 7.5 3.33 14-2 3.36-2.76 9.51-4 13.83-8.33z"/></clipPath><clipPath id="k"><path d="M44.83 37.67c2.71-2.72 1.79-5.48 7.17-11.33 3.08-3.35 4.93-4.38 4.31-8.05-1.05-6.2-6.54-11.73-12.64-12.84s-12.12 1.73-18 4.23c-6.52 2.77-10.83 7.13-14.73 13.17-2.8 4.34-4.99 9.6-3.77 14.5C8.54 42.77 11.95 47.08 17 48c6.45 1.17 7.5 3.33 14-2 3.36-2.76 9.51-4 13.83-8.33z"/></clipPath><clipPath id="l"><path d="M44.83 37.67c2.71-2.72 1.79-5.48 7.17-11.33 3.08-3.35 4.93-4.38 4.31-8.05-1.05-6.2-6.54-11.73-12.64-12.84s-12.12 1.73-18 4.23c-6.52 2.77-10.83 7.13-14.73 13.17-2.8 4.34-4.99 9.6-3.77 14.5C8.54 42.77 11.95 47.08 17 48c6.45 1.17 7.5 3.33 14-2 3.36-2.76 9.51-4 13.83-8.33z"/></clipPath><path d="M0 0h500v500H0z" fill="#fff"/><path d="M83 47S60.5 17.75 54.67 11.17C44.9.14 28.03 7.51 18.84 13.84 8.67 20.83.78 34.73 8.33 45c2.14 2.91 6.65 7.45 9.17 10.17 7.87 8.49 14.84 14.36 21.13 21.14C46.94 85.27 83 47 83 47z" fill="url(#a)" fill-rule="nonzero" transform="translate(50 50) scale(3.125)"/><path d="M220.844 207.031c2.437 1.969 2.562 6.094.344 8.25-2.25 2.156-6.313 1.906-8.313-.469s-1.563-6.406.875-8.343 6.375-1.531 8.406.875" fill="#c59278" fill-rule="nonzero"/><path d="M144.188 223.781c2.437 1.969 2.562 6.094.343 8.25s-6.312 1.906-8.312-.469-1.563-6.406.875-8.343 6.375-1.531 8.406.875" fill="#c59278" fill-opacity=".59" fill-rule="nonzero"/><path d="M250.875 221.094c2.438 1.969 2.563 6.094.344 8.25-2.25 2.156-6.313 1.906-8.313-.469s-1.562-6.406.875-8.344 6.375-1.531 8.406.875m-20.593-63.312c1.687 4.25 7.156 6.406 11.375 4.719 4.25-1.688 6.687-6.813 5.594-11.22l-1.22-1.312c-3.062-2.062-6.75-3.875-10.343-3-4.438 1.094-7.094 6.563-5.406 10.813zm4.25-6.813c2.437-1.937 6.406-1.531 8.406.875l-1.281-.312c2.437 1.969 2.562 6.094.344 8.25-2.25 2.156-6.313 1.906-8.313-.469-2.031-2.375-1.594-6.406.844-8.344z" fill="#c59278" fill-rule="nonzero"/><path d="M188.906 254.906c2.281 5.719 9.656 8.688 15.406 6.375 5.72-2.281 9.032-9.187 7.563-15.187l-1.656-1.75c-4.156-2.781-9.125-5.219-14-4.031-6 1.437-9.625 8.843-7.313 14.593zm5.719-9.219c3.281-2.625 8.625-2.062 11.344 1.157l-1.75-.438c3.281 2.656 3.469 8.25.469 11.156-3.032 2.938-8.532 2.594-11.25-.625-2.688-3.187-2.094-8.625 1.187-11.25z" fill="#c59278" fill-opacity=".65" fill-rule="nonzero"/><path d="m144.281 262.5 11.438-2.594 25 .5 24.5-10.406 25-2.094 14.562-18.219 26.563-22.906L275 166.406l1.563-8.594 9.375 46.875-47.407 50.532-67.687 21.875z" fill="#616161" fill-rule="nonzero"/><path d="M190.094 167.719c8.469-8.5 5.594-17.125 22.406-35.406 9.625-10.47 15.406-13.688 13.469-25.157-3.281-19.375-20.438-36.656-39.5-40.125s-37.875 5.406-56.25 13.219c-20.375 8.656-33.844 22.281-46.031 41.156-8.75 13.563-15.594 30-11.782 45.313 4.281 16.937 14.938 30.406 30.719 33.281 20.156 3.656 23.438 10.406 43.75-6.25 10.5-8.625 29.719-12.5 43.219-26.031z" fill="#99543d" fill-rule="nonzero"/><g clip-path="url(#b)" transform="translate(50 50) scale(3.125)"><path d="M25.66 18.28c-1.03-.43-1.97-.3-2.74.15-.07-.23-.15-.46-.26-.68-1.2-2.42-4.32-3.5-6.99-1.8-1.32.84-2.18 2.09-2.48 3.4-.99.38-1.87 1.14-2.23 2.11-.32.84-.31 1.68-.05 2.39-2.42.8-4.5 2.78-4.9 5.32-.18 1.12.09 2.24.64 3.18-2.3 3-2.82 7.19-.19 9.63-.25.56-.43 1.16-.51 1.81-.36 2.97 1.65 5.85 4.8 5.93 3.54.09 6.21-3.38 6.55-6.53.12-1.11.03-2.15-.23-3.12h.05c2.24-.31 4.4-1.74 5.9-3.55a7.387 7.387 0 0 0 3.03-3.64c.43-1.13.53-2.23.41-3.29.25-.19.49-.39.71-.62 1.28-1.3 1.8-2.83 1.74-4.3 1.34-2.57-.74-5.35-3.25-6.39z" fill="#59a822" fill-rule="nonzero"/></g><g clip-path="url(#c)" fill-rule="nonzero" transform="translate(50 50) scale(3.125)"><path d="M31.6 8.12c-3.08-1.93-7.2-1.79-9.83 2.19-.25.38-.46.76-.62 1.14-2.39 1.18-4.26 3.34-4.68 6.32-.19 1.34-.05 2.56.32 3.66-.85 2.01-1 4.28-.16 6.49a8.436 8.436 0 0 0 2.64 4.2c-1.45 1.1-2.48 2.73-2.8 4.54-.6 3.44 1.53 6.56 4.86 7.44 3.45.91 7.05-.65 8.86-3.74 1.39-2.39 1.29-5.32.12-7.69 1.94-.07 3.94-1.11 5.29-3.5 1.35-2.4 1.28-4.99.32-7.29.01-.01.02-.03.02-.04 1.31-.96 2.43-2.14 3.17-3.67 1.44-3.01.87-6.65-1.68-8.77-1.94-1.62-4.04-1.88-5.83-1.28z" fill="#ffde3c"/><path d="M53.72 17.9c-2.73-2.48-8.11-1.84-12.12.85-2.38-.64-5.41-.23-8.24 1.26-4.63 2.45-7.48 7.25-6.56 10.98.04.16.1.3.15.45-4.2 1.66-8.27 3.89-10.75 7.58-2.8 4.15-2.23 9.02 2.06 10.48.65.22 1.34.32 2.06.34-.09.92.17 1.75.89 2.25-.05.62-.02 1.23.13 1.8.85 3.09 4.85 4.55 8.93 2.44 1.11-.58 2.05-1.27 2.79-2.04 2.93-.76 5.86-2.39 7.84-4.68 3.01-3.47 2.93-7.34.77-9.5 2.51-1.33 4.68-3.42 5.86-5.9.2-.42.35-.84.47-1.25 1.06-1.04 2-2.2 2.74-3.39.35-.23.69-.48 1.02-.75 4.05-3.32 4.8-8.34 1.96-10.92z" fill="url(#d)"/><path d="M56.85 2.36c-2.98-1.19-7.12.93-9.5 4.3-2.12.19-4.44 1.42-6.25 3.47-2.97 3.35-3.75 8.07-1.84 10.81.08.11.17.21.26.32-2.86 2.59-5.44 5.6-6.29 9.31-.95 4.18 1.04 7.94 4.96 7.84.59-.01 1.18-.14 1.77-.34.21.77.68 1.36 1.43 1.54.15.52.37 1 .67 1.41 1.66 2.24 5.34 2.23 7.97-.69.72-.8 1.25-1.64 1.61-2.47 2.13-1.48 3.98-3.67 4.86-6.11 1.34-3.7.06-6.79-2.37-7.89 1.61-1.82 2.7-4.15 2.87-6.5.03-.4.02-.78-.01-1.15.53-1.16.92-2.37 1.14-3.55.21-.29.4-.59.59-.91 2.21-3.88 1.24-8.15-1.87-9.39z" fill="url(#e)"/></g><g clip-path="url(#f)" transform="translate(50 50) scale(3.125)"><path d="M38.25 20.32c1.15-1.04 2.17-2.63 1.18-4.15-.48-.74-1.39-1.06-2.23-.83-.8.21-1.4.92-1.8 1.61-.43.75-.76 1.69-.5 2.55.25.85 1.06 1.56 1.98 1.53 1.88-.05 2.56-2.47 2.58-3.98.03-1.65-2.53-1.65-2.56 0 0 .24-.02.47-.08.7-.07.26-.25.52-.3.77-.05.23-.49.09.36.13-.11-.01.56.04.51.09.12-.12.22-.52.33-.67.05-.07.11-.14.15-.2.16-.23.11-.02.02-.07-.13-.02-.26-.04-.4-.07-.06-.05-.12-.11-.18-.16-.02 0-.03-.07-.03-.07.06 0-.14.31-.2.39-.18.23-.42.42-.63.61-1.23 1.12.59 2.92 1.8 1.82z" fill="#fd7127" fill-rule="nonzero"/></g><g clip-path="url(#g)" transform="translate(50 50) scale(3.125)"><path d="M30.69 41.7c1.76-.3 2.1-2.88.66-3.78-1.57-.98-3.4.44-3.68 2.03-.14.82-.06 1.72.41 2.43.52.8 1.44 1.25 2.38.94 1.75-.57 2.13-3.14 1.19-4.51-.39-.57-1.12-.83-1.75-.46-.56.33-.85 1.18-.46 1.75.07.11.14.17.16.3.04.19-.11.37-.08.53 0 .01-.04.03-.03.05l.7-.01c.03-.03-.04-.25-.04-.31 0-.12.08-.3.07-.4-.05-.34.09.11-.02-.07-.11-.17-.44-.17-.48-.46-.01-.06-.03-.11-.01-.17.04-.1.61-.37.29-.31-.68.12-1.06.96-.89 1.57.21.71.9 1 1.58.88z" fill="#fd7127" fill-rule="nonzero"/></g><g clip-path="url(#h)" transform="translate(50 50) scale(3.125)"><path d="M42.82 28.91c-.24.3-.95-.36-1.23-.23-.01-.03-.03-.06-.04-.1l.03.11c-.01-.04-.02-.07-.02-.11-.01.14-.01.16 0 .07.09-.13-.09.16-.01.02l-.04.05c.03-.01.13-.05.15-.06.09-.05.23.11.02-.02.12.07.16.07.21.21.02.06-.02.12-.03.18.01-.13.08-.11 0-.02-.1.12-.03 0 .03-.02-.09.06-.09.07-.02.02.07-.04.07-.04.01-.01s-.06.03.01.01c.08-.02.07-.02 0 0-.1-.01-.19.03-.29-.03-.2-.25-.39-.51-.59-.76-.01-.04-.03-.24.01-.09.03.09-.05.04.03-.04-1.12 1.21.69 3.02 1.81 1.81.63-.68.99-1.8.49-2.66-.44-.76-1.54-.9-2.3-.63-1.67.58-2.34 2.75-.95 4 1.4 1.25 3.46.4 3.92-1.32.2-.75.07-1.67-.48-2.25-.65-.7-1.92-.71-2.53.07-.43.54-.53 1.28 0 1.81.44.43 1.38.54 1.81-.01z" fill="#fd7127" fill-rule="nonzero"/></g><g clip-path="url(#i)" transform="translate(50 50) scale(3.125)"><path d="M47.26 15.29c.36-.77.86-1.23 1.73-1.19l-1.28-1.28c-.04.46-.94 1.72-1.4 1.18.12.3.25.6.37.9.04.36 1.07-.83.75-.44.36-.12.46-.34.31-.68-.05-.26-.06-.52-.01-.78.27-.99 1.33-1.12 2.18-1.06-.22-.79-.43-1.59-.65-2.38-.41.21-.62-.03-.96-.02-.21-.25-.35-.15-.41.31-.35.3-.33.54.05.72-.12-.3-.25-.6-.37-.9 0-.05 2.1-.29 1.74.31s-1.2-.19-1.53-.23c-.17.06-.35.12-.52.17.11.07.21.15.32.22.13.27.33.44.41.76.19.8-.32 1.6-.95 2.04-1.35.92-.07 3.14 1.29 2.21 1.59-1.09 2.63-2.96 2.13-4.93-.4-1.56-1.89-3.12-3.63-2.81-1.89.33-2.07 2.56-1.07 3.87 1.06 1.39 3.19 1.85 4.74 1.03 1.54-.82 2-2.78.83-4.13-1.08-1.25-3.54-1.6-4.87-.57-1.68 1.31-.38 3.72 1.44 4 1.93.3 2.97-2 1.44-3.22-1.45-1.17-4.27-.49-3.66 1.78.57 2.13 3.19 2.49 4.87 1.62 1.2-.62.54-2.31-.65-2.38-1.71-.11-3.46.56-4.31 2.12-.77 1.43-.58 3.38.94 4.21 1.32.72 3.32.21 3.79-1.35.5-1.67-1.26-2.82-2.73-2.71-1.61.12-2.88 1.49-2.7 3.13.18 1.62 1.87 2.58 3.32 1.74 1.32-.76 1.67-2.65.42-3.65-1.17-.93-3.13-.64-4.05.51-1.32 1.66.28 3.38 2.1 3.26 2.02-.13 3.41-1.94 3.57-3.83.06-.71-.64-1.25-1.28-1.28-1.71-.08-3.23.91-3.94 2.46-.67 1.46 1.54 2.77 2.23 1.27z" fill="#7c4535" fill-rule="nonzero"/></g><g clip-path="url(#j)" transform="translate(50 50) scale(3.125)"><path d="M46.92 17.13c-1.35 2.08-2.93 8.12.44 9.4 3.73 1.42 4.09-6.32 3.56-8.33-.16-.61-.94-1.16-1.57-.89-3.12 1.31-3.95 5.91-2.26 8.73 2.28 3.81 5.16.1 5.64-2.74.39-2.3-.42-7.83-3.96-6.7-2.75.88-3.69 5.06-1.8 7.14 2.43 2.67 5.41.14 5.96-2.65.44-2.22-.76-6.89-3.81-4.92-2.1 1.36-2.39 5.65.85 5.44 2.87-.18 4.19-4.75 1.91-6.45-2.6-1.95-5.42 1.15-4.96 3.85.66 3.84 4.75 2.71 6.13.03 1.13-2.19.83-7.62-2.96-6.49-2.97.88-3.38 5.41-.98 7.08 2.42 1.69 5.79-.41 6.16-3.11.48-3.53-3.31-6.24-6.51-4.91-3 1.24-4.37 5.42-1.8 7.78 2.84 2.6 7.05-.13 8.5-2.98 1.64-3.22-.06-8.16-4.34-7.33-3.83.74-5.39 6.57-2.73 9.26 2.74 2.77 7.15 1.08 8.3-2.36 1.05-3.13-1.46-7.02-4.66-4.45-1.28 1.03.54 2.83 1.81 1.81.72.85.75 1.62.09 2.33-.4 1.11-1.31 1.59-2.72 1.44-1.58-.97-2-2.1-1.28-3.4.23-1.9 1.46-1.92 3.69-.05.26 1.06-1.17 2.94-2.02 3.35-1.13 1.11-2.18.49-3.16-1.87 2.23-2.09 3.1-1.97 2.61.36.11 1.82-.12 3.62-.67 5.38-.6.19-1.19.38-1.79.58.07.07.65-4.78 1.57-.95.13.55.03 4.58-1.06 3.69-.93-.75.1-4.1.94-4.45-.52-.3-1.05-.6-1.57-.89.5 1.88.41 4.32-1.28 5.63l1.24-.33c-.61-.2-.44-2.66-.37-3.07.16-1.02.53-1.84 1.09-2.7.88-1.35-1.34-2.63-2.23-1.26z" fill="#7c4535" fill-rule="nonzero"/></g><g clip-path="url(#k)" transform="translate(50 50) scale(3.125)"><path d="M51.61 28.26c1.75-1.24 2.31-.79 1.68 1.35-.38 1.96-1.47 2.33-3.25 1.11 0-1.08.4-2.02 1.18-2.82 2.94.17 3.91 1.02 2.92 2.54-.75 3.24-3.69 1.28-3.1-1.25.38-1.61 1.14-2.94 2.5-1.74l-.33-1.24c-.55.34-1.1.69-1.65 1.03l.89.89c-.05-.92-.1-1.84-.16-2.76.3-1.63.73-1.94 1.3-.92.75.51.62.88-.41 1.09-.75.63-1.63.83-2.63.58l.89.89c.86-1.57 1.08-1.73.65-.48-1.75 3.7-2.3 4.45-1.64 2.27.02-1.11.66-1.73 1.91-1.86.89-.21 1.73-.13 2.53.24.11-.84.23-1.68.34-2.51-.42-.86-.84-1.72-1.27-2.58-1-1.33-.96-1.99.1-1.96.64-.31 2.49-.39 1 .77l-1.24.33c-.03.01-.06.03-.08.04v-1.29c-.07.16-.14.31-.21.47-.68 1.49 1.53 2.79 2.21 1.29.99-2.18-1.68-4.34-3.1-2.05-1.41 2.26 1.66 4.13 3.42 2.52 1.86-1.7.36-4.95-2.13-4.59-3.21.46-3.63 4.93-.95 6.42 2.43 1.36 6.43-.41 6.11-3.48-.33-3.2-4.63-3.6-6.97-2.52-2.84 1.31-3.76 5.41-1.08 7.4 2.55 1.9 6.03.17 6.93-2.64 1.25-3.87-3.1-5.59-5.58-2.85-2.64 2.91-.8 6.85 2.85 7.29 1.51.18 1.62-2.07.34-2.51-3.45-1.19-9.58 1.16-7.88 5.72 1.4 3.76 7.4 3.62 6.66-.98-.63-3.93-6.64-3.65-5.92.37.67 3.79 6.16 2.11 5.66-1.42-.54-3.8-6.27-2.24-5.09 1.06 1.54 4.3 6.42-2.08 5.92-4.77-.74-3.96-6.77-.85-6.19 2.38.81 4.46 8.14.02 8.63-2.88.82-4.86-5.59-3.8-7.13-.56-.78 1.64-.84 3.72.3 5.21.88 1.15 2.77 2 4.04.88 2.66-2.35-3.35-5.99-4.62-2.41-1.31 3.67 5.55 3.04 5.72-.43.19-3.71-5.93-1.69-5.99 1.56-.03 1.57 1.16 2.85 2.76 2.82 1.89-.03 3.36-1.87 3.87-3.53 1.51-4.95-4.03-5.84-6.38-2.1-1.76 2.8-3.2 10.64 2.6 9.69 4.3-.7 6.65-8.57 2.17-10.62-4.29-1.97-9.2 4.63-6.5 8.3 3.5 4.74 8.61-2.07 7.56-6.05-.47-1.76-1.93-3.89-3.99-3.65-2.79.33-2.94 3.51-2.64 5.63.23 1.61 2.7.92 2.47-.69z" fill="#7c4535" fill-rule="nonzero"/></g><g clip-path="url(#l)" transform="translate(50 50) scale(3.125)"><path d="M48.13 17.04c-.92.05-1.03-.99-.96-1.72.02-.24.12-.49.14-.73.02-.27.2-.29-.05-.23-.37.09.18.14.25.17.18.08.39.09.57.19.75.39-.32.67-.8.72-.22.02-1.02-.12-1.15-.01s.1.35.24.4c.16.05.58-.01.76.01 1.61.25 2.31-2.22.68-2.47-1.47-.22-3-.15-3.82 1.29-.71 1.25-.06 2.76 1.3 3.18 2.24.69 6.31-.48 5.59-3.52-.54-2.27-4.67-3.53-5.78-1.13-1.14 2.45-.29 6.57 3.04 6.4 1.63-.08 1.64-2.64-.01-2.55z" fill="#7c4535" fill-rule="nonzero"/></g><g fill-rule="nonzero"><path d="M95.5 169.281c2.625 4.656 9.531 4.406 12.469.25 3.187-4.5-.281-10.594-5.281-11.687-5.5-1.219-10.157 3.531-10.313 8.844-.031 1.5.25 3.406 1.375 4.53 1.094 1.095 2.813 1.376 4.281 1.47 3 .218 5.781-.97 8-2.938 1.594-1.406 1.438-4.094 0-5.531-1.562-1.563-3.937-1.406-5.531 0-.906.781-1.906.781-2.969.437l2.719 2.719c-.156-.594-.063-1.313.344-1.75.031-.031.625-.5.125-.219-.219.125.094-.031.187 0-.219-.125.625.25.219.125.5.156.125.438.219-.219 0-.093.344-.843 0-.03.031-.032.375-.47.375-.438-.344.187-.406.219-.188.094.188-.094.188-.094-.031-.032-.438.094.625.188-.219 0 .219.063.469.031.625.188-.844-.875.844 1.344.219.187-2.344-4.312-9.094-.375-6.625 4zm27.344-49.906c1.937 3.375 6.812 3.531 9.344.781 3.25-3.531.406-8.937-3.844-9.781-4.375-.875-7.969 3-7.938 7.187 0 6.094 7.5 5.032 10.719 2.188 2.969-2.594-1.375-6.938-4.344-4.344-.687.594-1.5.594-2.312.344l2.156 2.156c-.125-.437-.156-1.031.25-1.375-.125.094.438-.312.25-.187 0 0 .469.187.375.25-.344.281.781-1.313.156-.594.156-.188-.031.125-.25-.031.188.125.563 0 .75.312-1.969-3.437-7.281-.344-5.312 3.094z" fill="#fd7127"/><path d="m120.66 88.67-3.72-6.21-4.74-5.47-3.78-7-6.26-4.96-5.85-5.28-3.66-5.39-3.2-5.85-6.67-2.66-3.02-6.04-2.83-5.17-4.48-.41.42 4.28.13 9.16L71.33 54l-8.83 4.33-5 6.5-7.17.33L42.5 69l-6.15-.55-6.66-.95-1.16 1.11 4.9 5.03 5.73 4.27 4.03 5.91 5.84 4.2 7.26 7.57 4.84 4.41 4.96 4.54 4.66 7.08 6.16 5.5 5.61 6.23 6.82.66 6.07-.93 5.9-1.5 9.35-3.53 6.25-8.51 4.69-4.68 1.82-8.31z" fill="url(#m)" transform="translate(50 50) scale(3.125)"/><path d="M115.656 108.281c3.375-4.969 8.969-5.125 13.344-2.719 2.344-1.062 4.813-1.624 7.156-1.406a162.123 162.123 0 0 1 3.5-3.031c5.438-4.656 10.688-10.344 16.875-13.875 0-3.188-.406-6.563-1.281-10.156-.313-1.25-.125-2.344.344-3.25-3.094-.656-6.125-.438-8.906.531-9.375-6.031-21.907-5.594-29.907 6.844a28.24 28.24 0 0 0-1.906 3.562c-7.281 3.688-12.969 10.438-14.219 19.75-.562 4.188-.156 8 .969 11.438-2.563 6.281-3.031 13.375-.469 20.281.531 2 1.344 3.906 2.313 5.75 1.875-.531 3.844-.656 5.812-.531.188-.625.5-1.25.969-1.875 3.906-4.813 6.719-10.219 9.719-15.563-5.281-3.594-8.625-9.437-4.313-15.75z" fill="#ffde3c"/><path d="M180.031 76.688c14.219 0 25.375 4.75 34.063 14.562 7.969 8.969 27.719 33.688 57.125 71.469a9.38 9.38 0 0 0 6.375 3.562l5.625.625 1.781.375 6.25 11.563 9.375 18.719a9.33 9.33 0 0 0 4.906 4.5l17.719 7.062 8.375 15.313.469.75 11.437 16.843c.438.625.906 1.188 1.469 1.688l18.281 16.5.469.375 18.031 14.312 10.906 20.188c.313.594.72 1.156 1.157 1.687l14.281 16.469 10.688 17.875 7.406 21.219-4.531 20.687L409 385.72a7.866 7.866 0 0 0-.938 1.094l-17.875 24.343-26.125 9.875-17.5 4.438-17.375 2.656-16.53-1.594-15.094-16.75c-.22-.25-.47-.5-.72-.719L278.5 392.688l-13.875-21.093a9.043 9.043 0 0 0-1.5-1.75l-15.531-14.219-14.875-13.563-22.469-23.437a11.003 11.003 0 0 0-1.281-1.125l-16.906-12.188-11.657-17.125a9.225 9.225 0 0 0-2.156-2.25l-17.313-12.875-9.437-9.687a9.466 9.466 0 0 0-2.313-9.969l-.937-.906c-11.594-11.125-23.563-22.656-36.406-36.5-1.906-2.063-4.219-4.469-6.656-7.062-7.376-7.782-16.563-17.47-21.313-23.875-10.375-14.094-8.156-29.625-4.469-40.188 4.938-14.125 15.531-28.531 29.125-39.5a9.447 9.447 0 0 0 2.781-3.75c1.876-4.625 5.438-7.187 8.094-8.531a9.464 9.464 0 0 0 4.375-4.656c.313-.75.719-1.5 1.188-2.22 2.687-4.187 5.969-6.312 9.75-6.312 2.187 0 4.469.688 6.656 2a9.367 9.367 0 0 0 4.813 1.313 9.433 9.433 0 0 0 3.218-.563c11.063-3.906 21.375-5.969 30.625-5.969m0-9.374c-11.25 0-22.844 2.656-33.875 6.687-3.531-2.125-7.5-3.313-11.469-3.313-6.406 0-12.843 3.126-17.656 10.626a28.24 28.24 0 0 0-1.906 3.562c-5.5 2.781-10.063 7.313-12.531 13.375-28.438 22.969-48.281 62.656-26.281 92.5 6.687 9.094 20.78 23.281 28.656 31.781 13.375 14.438 25.906 26.406 37.719 37.781l-3.25 4.22 15.312 15.718 17.906 13.344 12.594 18.469 18.25 13.125 22.688 23.656 15.125 13.781 15.5 14.188 14.562 22.125 19.25 17.187 17.531 19.469 21.313 2.062 18.969-2.906 18.437-4.656 29.219-11.031 19.531-26.594 14.656-14.625 5.688-25.969-8.594-24.625-11.625-19.406-14.813-17.094-11.812-21.875-19.563-15.5-18.28-16.5-11.438-16.844-10-18.281L309 193.437l-9.438-18.875-8.812-16.28-3.719-.095-2.344-.5-6.062-.687c-21.281-27.313-47.406-60.5-57.5-71.906-11.438-12.938-25.938-17.781-41.094-17.781z" fill="#424242" fill-opacity=".2"/><path d="M332.313 420.5a63.166 63.166 0 0 1-13.657-1.969c-2.219-.594-4.875-2-4.594-4.25.313-2.437 3.594-2.969 6.063-2.844 9.156.47 18.344.907 27.5 1.375.75.032 1.531.094 2.188.438 1.687.938 1.656 3.594.375 5.031s-3.313 1.969-5.22 2.25c-5.843.906-11.874.438-17.53-1.281" fill="#9c9c9c"/><path d="M311.25 295.25c-2.313.125-5.313.844-5.531 3.156 5.969 3.375 12.344 6.531 19.187 6.813 3.781.156 23.625-8.438 16.063-12.938-1.656-.969-9.094 1.781-11.156 2-6.125.625-12.407.625-18.563.969z" fill="#b8b8b8"/><path d="M327.938 301.625c-2.22-2.75-3.875-5.625-4.438-8.5 17.813 7.688 37.063 12.031 56.437 12.687-8.375 9.188-31.125 12.438-31.125 12.438s-13.5-7.5-20.875-16.625z" fill="#8c8c8c"/><path d="M298.719 284.156c5.844.031 11.844 1.25 16.687 4.5a259.5 259.5 0 0 1-17.094-.469c-3.718-.218-12.437.5-15.093-2 4.687-1.656 10.531-2.062 15.5-2.03z" fill="#fff"/><path d="M360.406 266.5c-13.344 6.438-26.937 5.5-41.062 7.688 6.781-1.625 13.437-3.625 20.312-4.938 3.5-.656 7.031-1.219 10.563-1.688 2.812-.375 7.687.125 10.187-1.062z" fill="#b8b8b8"/><path d="M263.406 285.25c-7.437 1.156-19.312 1.656-26.281-1.625 4.375-.281 8.906.031 13.281.313 3.938.25 9.188 1.906 13 1.312z" fill="#fff"/><path d="M297.188 256.969c3.5-9 6.968-17.969 10.468-26.969.594-1.531 1.188-3.094 1.156-4.719-.062-2.312-1.687-6.625-4.406-5.281-1.969.969-2.281 9.594-2.625 11.563a19980.6 19980.6 0 0 1-4.594 25.406z" fill="#e3e3e3"/><path d="M278.969 378.469c.531-3.719 18.437-13.531 19.469-17.156-2.47 0-18.063 1.656-19.938 0s-7.281-.532-9.406-1.813c-3.188-1.938-7.063-2.469-10.344-4.281 1.188 4.312 6.688 6.812 9.781 9.719 2.313 2.187 10.938 10.093 10.438 13.53z" fill="#dbdbdb"/><path d="M348.875 392.656c.938 2.406-.75 5.031-2.469 6.969-2.312 2.594-11.219 11.219-14.562 6.875 3.406-1.688 8.687-2.063 9.687-5.75 8.125-30.219 11.906-23.094 7.344-8.094zm-3.25-33.781c-4.75-11.219-7.406-26.344-7.406-26.344l-6.906-14.562-8.75 29.844s-20.344 22.843-31.532 33.375c4.438-2.375 53.25-25.47 54.594-22.313zm54.937 20.938c2.782-3.97 4.282-8.688 5.782-13.313 1.25 4.656.125 9.688-2.063 13.969-2.219 4.281-5.469 7.937-8.719 11.469-.406.437-.812.875-1.343 1.062-.594.219-1.25.094-1.844-.031a94.428 94.428 0 0 1-19.531-6.094c3.812 1.656 11.25 1.094 15.406.656 5.031-.531 9.406-3.562 12.313-7.719z" fill="#616161"/><path d="M257.031 351.563c7.813-3.22 21.125-1.063 27.938-6.063-1.406 1.031-29.656-18.375-33.813-18.531 5.906 5.937 4.75 16.562 5.875 24.594z" fill="#e3e3e3"/><path d="M178.844 275.625c25.281 9.844 44.094 24 29.375 21.438-5.156-.907-11.438-.907-15.656-4.22-5.344-4.187-9.532-11.906-13.72-17.218zm92.125-42.156a189.074 189.074 0 0 0 16.344-26.188c.75 6.375-1.094 12.75-3.22 18.781-2.437 6.782-5.28 13.438-8.593 19.844-.25.5-.563 1.063-1.094 1.313-.562.25-1.187.094-1.812-.031-2.844-.532-5.75.125-8.594.78-2.938.688-5.906 1.47-8.875 1.97 2.219-5.47 11.938-11.094 15.844-16.47z" fill="#616161"/><path d="M246.156 257.25c-7.312 5.344-14.625 10.656-21.937 16-8.188.313-16.219 1.688-24.313 2.344.438-4.281 16.969-7.188 21.125-8.688 7.5-2.687 18.656-4.969 25.125-9.656z" fill="#969696"/><path d="M251.75 310.313c1.531 0 3.156.03 4.531-.657 1.344-.656 2.313-1.875 3.219-3.062 2.906-3.813 5.813-7.656 8.75-11.469a150.602 150.602 0 0 1-7.75 21.594c-1.688-1.25-3.938-1.469-6.031-1.656-7.531-.625-15.906-.407-23.219-2.125 6.031-2.594 13.969-2.625 20.5-2.625z" fill="#616161"/><path d="M249.281 261.875c.625-.875 1.281-1.781 2.25-2.25.719-.344 1.531-.375 2.344-.406 13.125-.375 26.313 3 37.625 9.625-10.094-.844-20.281-1.531-30.344-.5-9.375.969-18.469 3.531-26.656 8.281a66.851 66.851 0 0 0 14.781-14.75z" fill="#9e9e9e"/><path d="M369.688 354.531c-1.875 3.25-4.782 6.844-8.47 6.25 18.094-1.594 37.5 4.656 53.876-3.219-9.063-4.906-19.563-7.187-29.844-6.5-1.406.094-3.031.188-4.063-.812-.718-.688-.937-1.781-1.062-2.781-1.563-13.344 11.5-28.281 6.125-40.781-4.656 16.562-7.75 32.5-16.563 47.843z" fill="#616161"/><path d="M352.906 402.031c.875-.844 1.719-1.719 2.281-2.812.688-1.281.907-2.75 1.157-4.188l3.094-19.219c1.25 10 2.468 20 3.718 30-.25-2.093-15.625 1.22-17.031 1.032 2.344-1.469 4.719-2.875 6.781-4.813z" fill="#e3e3e3"/><path d="M268.469 319.438c-1.344 2.625-2.875 5.53-5.625 6.53 5.719.844 19.281 13.126 24.156 16.22-1.75-2.22-4.813-12.844-5.219-15.625-.406-2.97-6.094-8.25-5.5-11.22.906-4.53 11.188-21.937 12.781-26.28-4.656 5-17.437 24.312-20.593 30.375z" fill="#616161"/></g></svg>